<svg width="279" height="240" viewBox="0 0 279 240" fill="none" xmlns="http://www.w3.org/2000/svg">
<path d="M63.699 42.3328C63.699 33.4668 70.887 26.2788 79.753 26.2788H153.814V97.1648H159.024V136.955C159.024 145.822 151.836 153.009 142.97 153.009H79.753C70.887 153.009 63.699 145.821 63.699 136.955V42.3328Z" fill="url(#paint0_linear_6703_12615)"/>
<path d="M139.5 208.577C199.796 208.577 248.676 196.389 248.676 181.355C248.676 166.321 199.796 154.133 139.5 154.133C79.2037 154.133 30.324 166.321 30.324 181.355C30.324 196.389 79.2037 208.577 139.5 208.577Z" fill="url(#paint1_linear_6703_12615)"/>
<path d="M197.529 73.3846V145.568C197.529 155.477 189.497 163.509 179.588 163.509H99.307C89.398 163.509 81.366 155.477 81.366 145.568V57.9146C81.366 48.0056 89.398 39.9736 99.307 39.9736H164.659V73.3846H197.529Z" fill="url(#paint2_linear_6703_12615)"/>
<path d="M168.414 40.2026L197.634 69.4226H168.414V40.2026Z" fill="#2AB26B"/>
<path d="M116.158 157.392V144.327H162.738V157.392V163.403H170.308C173.706 163.403 174.766 166.094 174.766 167.645C174.766 170.256 171.603 172.631 168.755 175.312C160.486 183.115 153.376 190.069 144.17 197.684C141.806 199.64 137.285 199.773 134.726 197.684C125.454 190.112 118.41 183.115 110.141 175.312C107.293 172.631 104.13 170.256 104.13 167.645C104.13 166.094 105.19 163.403 108.588 163.403H116.158V157.392Z" fill="url(#paint3_linear_6703_12615)"/>
<path d="M116.158 163.403V157.392V144.327H162.737L162.738 157.392V163.403H116.158Z" fill="url(#paint4_linear_6703_12615)"/>
<path d="M101.233 102.579H136.321V111.583H101.233V102.579ZM144.396 120.663H174.829V129.667H144.396V120.663ZM144.396 85.4399H174.829V94.4439H144.396V85.4399ZM144.396 102.579H174.829V111.583H144.396V102.579ZM124.929 94.4449L118.62 85.1859L112.311 94.4449H101.233L113.081 77.0579L101.233 59.6699H112.311L118.62 68.9289L124.929 59.6699H136.007L124.159 77.0579L136.007 94.4449H124.929ZM101.233 120.663H136.321V129.667H101.233V120.663Z" fill="#FEFEFE"/>
<defs>
<linearGradient id="paint0_linear_6703_12615" x1="172.871" y1="19.6394" x2="91.6588" y2="112.067" gradientUnits="userSpaceOnUse">
<stop stop-color="#00F59F"/>
<stop offset="1" stop-color="#4DD8DB"/>
</linearGradient>
<linearGradient id="paint1_linear_6703_12615" x1="33.8906" y1="201.088" x2="272.87" y2="156.435" gradientUnits="userSpaceOnUse">
<stop stop-color="#00F59F"/>
<stop offset="1" stop-color="#04BDC8"/>
</linearGradient>
<linearGradient id="paint2_linear_6703_12615" x1="107.889" y1="85.9215" x2="200.838" y2="155.597" gradientUnits="userSpaceOnUse">
<stop stop-color="#2AB26B"/>
<stop offset="1" stop-color="#07F2A3"/>
</linearGradient>
<linearGradient id="paint3_linear_6703_12615" x1="84.5248" y1="202.172" x2="142.865" y2="162.348" gradientUnits="userSpaceOnUse">
<stop stop-color="#1350C8"/>
<stop offset="1" stop-color="#DE37F3"/>
</linearGradient>
<linearGradient id="paint4_linear_6703_12615" x1="104.84" y1="180.971" x2="141.51" y2="152.249" gradientUnits="userSpaceOnUse">
<stop stop-color="#1350C8"/>
<stop offset="1" stop-color="#DE37F3"/>
</linearGradient>
</defs>
</svg>
