<svg width="220" height="220" viewBox="0 0 220 220" fill="none" xmlns="http://www.w3.org/2000/svg">
<path d="M34.375 44.054C34.375 35.188 41.563 28 50.429 28H124.49V98.886H129.7V138.676C129.7 147.543 122.512 154.73 113.646 154.73H50.429C41.563 154.73 34.375 147.542 34.375 138.676V44.054Z" fill="url(#paint0_linear_5711_1350)"/>
<path d="M110.176 210.298C170.472 210.298 219.352 198.11 219.352 183.076C219.352 168.041 170.472 155.854 110.176 155.854C49.8798 155.854 1 168.041 1 183.076C1 198.11 49.8798 210.298 110.176 210.298Z" fill="url(#paint1_linear_5711_1350)"/>
<path d="M168.206 75.1063V147.289C168.206 157.198 160.174 165.23 150.265 165.23H69.984C60.075 165.23 52.043 157.198 52.043 147.289V59.6363C52.043 49.7273 60.075 41.6953 69.984 41.6953H135.336V75.1063H168.206Z" fill="url(#paint2_linear_5711_1350)"/>
<path d="M139.09 41.9238L168.31 71.1438H139.09V41.9238Z" fill="#2AB26B"/>
<path d="M86.8346 159.114V146.049H133.415V159.114V165.125H140.985C144.383 165.125 145.443 167.816 145.443 169.367C145.443 171.978 142.28 174.353 139.432 177.034C131.163 184.837 124.053 191.791 114.847 199.406C112.483 201.362 107.962 201.495 105.403 199.406C96.1306 191.834 89.0866 184.837 80.8176 177.034C77.9696 174.353 74.8066 171.978 74.8066 169.367C74.8066 167.816 75.8666 165.125 79.2646 165.125H86.8346V159.114Z" fill="url(#paint3_linear_5711_1350)"/>
<path d="M86.834 165.125V159.114V146.049H133.413L133.414 159.114V165.125H86.834Z" fill="url(#paint4_linear_5711_1350)"/>
<path d="M71.9082 104.3H106.996V113.304H71.9082V104.3ZM115.071 122.384H145.504V131.388H115.071V122.384ZM115.071 87.1606H145.504V96.1646H115.071V87.1606ZM115.071 104.3H145.504V113.304H115.071V104.3ZM95.6042 96.1656L89.2952 86.9066L82.9862 96.1656H71.9082L83.7562 78.7786L71.9082 61.3906H82.9862L89.2952 70.6496L95.6042 61.3906H106.682L94.8342 78.7786L106.682 96.1656H95.6042ZM71.9082 122.384H106.996V131.388H71.9082V122.384Z" fill="#FEFEFE"/>
<defs>
<linearGradient id="paint0_linear_5711_1350" x1="143.547" y1="21.3606" x2="62.3348" y2="113.789" gradientUnits="userSpaceOnUse">
<stop stop-color="#00F59F"/>
<stop offset="1" stop-color="#4DD8DB"/>
</linearGradient>
<linearGradient id="paint1_linear_5711_1350" x1="4.5666" y1="202.809" x2="243.546" y2="158.156" gradientUnits="userSpaceOnUse">
<stop stop-color="#00F59F"/>
<stop offset="1" stop-color="#04BDC8"/>
</linearGradient>
<linearGradient id="paint2_linear_5711_1350" x1="78.5662" y1="87.6432" x2="171.515" y2="157.318" gradientUnits="userSpaceOnUse">
<stop stop-color="#2AB26B"/>
<stop offset="1" stop-color="#07F2A3"/>
</linearGradient>
<linearGradient id="paint3_linear_5711_1350" x1="55.2015" y1="203.894" x2="113.542" y2="164.071" gradientUnits="userSpaceOnUse">
<stop stop-color="#1350C8"/>
<stop offset="1" stop-color="#DE37F3"/>
</linearGradient>
<linearGradient id="paint4_linear_5711_1350" x1="75.5158" y1="182.694" x2="112.186" y2="153.971" gradientUnits="userSpaceOnUse">
<stop stop-color="#1350C8"/>
<stop offset="1" stop-color="#DE37F3"/>
</linearGradient>
</defs>
</svg>
